<?xml version="1.0" encoding="UTF-8"?>
<svg version="1.1" xmlns="http://www.w3.org/2000/svg" width="48" height="48">
<path d="M0 0 C0.721875 0.00257813 1.44375 0.00515625 2.1875 0.0078125 C2.909375 0.00523437 3.63125 0.00265625 4.375 0 C6.1875 0.1328125 6.1875 0.1328125 7.1875 1.1328125 C7.4375 4.0078125 7.4375 4.0078125 7.1875 7.1328125 C6.1975 8.1228125 5.2075 9.1128125 4.1875 10.1328125 C10.1275 10.4628125 16.0675 10.7928125 22.1875 11.1328125 C22.331875 9.6890625 22.47625 8.2453125 22.625 6.7578125 C23.0625 2.3828125 23.0625 2.3828125 24.1875 0.1328125 C27.4875 0.1328125 30.7875 0.1328125 34.1875 0.1328125 C33.73277615 3.42501319 33.27381132 6.71653368 32.8125 10.0078125 C32.62300781 11.38453125 32.62300781 11.38453125 32.4296875 12.7890625 C31.56086692 18.9576886 30.4602963 25.03445807 29.1875 31.1328125 C25.5575 31.1328125 21.9275 31.1328125 18.1875 31.1328125 C18.8475 27.8328125 19.5075 24.5328125 20.1875 21.1328125 C14.9075 21.1328125 9.6275 21.1328125 4.1875 21.1328125 C4.043125 22.5971875 3.89875 24.0615625 3.75 25.5703125 C3.3125 30.0078125 3.3125 30.0078125 2.1875 31.1328125 C0.50141034 31.20486761 -1.18750659 31.21667318 -2.875 31.1953125 C-3.79410156 31.18628906 -4.71320312 31.17726563 -5.66015625 31.16796875 C-6.37042969 31.15636719 -7.08070313 31.14476563 -7.8125 31.1328125 C-7.12388336 26.87780665 -6.43001598 22.62370129 -5.73120117 18.37036133 C-5.49406591 16.92235719 -5.2583845 15.47411419 -5.02416992 14.02563477 C-4.68787609 11.94743843 -4.34641681 9.87014834 -4.00390625 7.79296875 C-3.79967041 6.54136963 -3.59543457 5.28977051 -3.38500977 4.00024414 C-2.62472358 0.19232888 -2.62472358 0.19232888 0 0 Z " fill="#5C77F0" transform="translate(10.8125,7.8671875)"/>
</svg>
