<?xml version="1.0" encoding="utf-8"?>
<svg xmlns="http://www.w3.org/2000/svg" width="181" height="34" viewBox="0 0 181 34">
  <g fill="#151935" fill-rule="nonzero">
    <path d="M132.15 28.317v-6.259h2.306l4.394 6.26h4.661l.057-.043-4.874-6.942.226-.12c.451-.261.866-.58 1.234-.949a6.054 6.054 0 0 0 1.311-1.94c.318-.754.481-1.562.48-2.379a6.09 6.09 0 0 0-3.737-5.627 6.142 6.142 0 0 0-2.384-.478h-7.567v18.477h3.893Zm0-14.595h3.681a2.233 2.233 0 0 1 2.188 2.23 2.233 2.233 0 0 1-2.188 2.23h-3.68v-4.46Zm-40.726-3.86h-15.24v3.875h5.677v14.58h3.886v-14.58h5.676V9.86h.001Zm80.88 0h-15.232v3.875h5.67v14.58h3.892v-14.58h5.67V9.86ZM49.338 8.207V5.727H45.45v4.423l3.885-1.941.002-.001Zm-3.887 3.587v16.522h3.885V9.854l-3.885 1.941Zm54.668-3.587V5.727h-3.892v4.423l3.892-1.941v-.001Zm-3.892 3.587v16.522h3.892V9.854l-3.892 1.941Zm56.042-3.587V5.727h-3.892v4.423l3.892-1.941v-.001Zm-3.892 3.587v16.522h3.892V9.854l-3.892 1.941ZM181 8.208V5.727h-3.893v4.423L181 8.21v-.001Zm-3.893 3.587v16.522H181V9.854l-3.893 1.941ZM67.474 9.855v11.682L59.287 9.868v-.014h-3.892v18.463h3.892v-11.69l8.187 11.668v.02h3.893V9.855h-3.893Zm51.932 8.108h-5.24v3.877h4.592c-.226.366-.494.71-.804 1.02a5.315 5.315 0 0 1-3.788 1.56 5.332 5.332 0 0 1-3.786-1.56 5.302 5.302 0 0 1-1.565-3.778c0-1.414.55-2.75 1.543-3.755a5.32 5.32 0 0 1 3.808-1.59 5.39 5.39 0 0 1 2.674.71 5.45 5.45 0 0 1 1.82 1.717l3.49-1.745-.056-.098a9.271 9.271 0 0 0-3.308-3.236 9.226 9.226 0 0 0-4.62-1.231 9.262 9.262 0 0 0-8.532 5.662 9.2 9.2 0 0 0-.713 3.566c0 1.245.248 2.455.727 3.588a9.248 9.248 0 0 0 8.518 5.633 9.222 9.222 0 0 0 6.538-2.701 9.202 9.202 0 0 0 2.638-7.653H119.4c0 .008 0 .008.006.014ZM7.08 17.288a5.24 5.24 0 0 1-3.075-1.497 5.207 5.207 0 0 1-1.544-3.714c0-1.027.297-2.012.846-2.856 1.982.992 6.186 3.088 9.309 4.649l2.75-1.37C11.763 10.696 2.688 6.166 2.688 6.166l-.627.676A7.673 7.673 0 0 0 0 12.083a7.643 7.643 0 0 0 2.264 5.444 7.737 7.737 0 0 0 2.454 1.652 7.647 7.647 0 0 0 2.433.584 22.154 22.154 0 0 1-.07-2.476v.001Z"/>
    <path d="m31.981 6.837-.626-.676-20.22 10.108c-.747.372-1.516.66-2.291.865-.099.027-.191.049-.276.07a17.76 17.76 0 0 0 .148 3.123c.099.704.233 1.393.403 2.075.367 1.458.894 2.87 1.571 4.213a20.712 20.712 0 0 0 2.427 3.707 20.116 20.116 0 0 0 3.16 3.08l.761.598.761-.597a20.743 20.743 0 0 0 3.16-3.082 20.72 20.72 0 0 0 2.426-3.706 20.088 20.088 0 0 0 1.572-4.213c.226-.886.38-1.793.48-2.714.084-.824.106-1.661.07-2.49-.092-.021-.19-.043-.296-.071a11.942 11.942 0 0 1-2.291-.865l-1.496-.746-2.75 1.372 3.139 1.567c.394.198.803.381 1.205.536a17.22 17.22 0 0 1-.465 2.813 17.46 17.46 0 0 1-1.382 3.7 17.978 17.978 0 0 1-2.13 3.257 18.158 18.158 0 0 1-2.017 2.082 18.166 18.166 0 0 1-2.017-2.083 17.716 17.716 0 0 1-3.513-6.956 17.321 17.321 0 0 1-.465-2.82c.403-.162.804-.338 1.2-.535 0 0 16.134-8.06 18.497-9.242.55.844.846 1.835.846 2.856a5.218 5.218 0 0 1-1.544 3.713 5.267 5.267 0 0 1-3.054 1.498c.028.824 0 1.653-.078 2.476a7.815 7.815 0 0 0 2.42-.584 7.62 7.62 0 0 0 2.455-1.652 7.643 7.643 0 0 0 2.263-5.444 7.61 7.61 0 0 0-2.053-5.233ZM21.536 5.43a5.303 5.303 0 0 1 1.701-1.984 5.346 5.346 0 0 1 3.096-.984V.007a7.808 7.808 0 0 0-6.48 3.44 21.495 21.495 0 0 0-2.06-1.857l-.762-.598-.79.611a21.259 21.259 0 0 0-1.883 1.681c-.056.057-.106.106-.154.162-.093-.133-.191-.266-.29-.4a7.591 7.591 0 0 0-1.678-1.612A7.793 7.793 0 0 0 7.715 0v2.455c1.114 0 2.186.338 3.096.984a5.398 5.398 0 0 1 1.706 1.99 20.147 20.147 0 0 0-1.882 3.046l2.2 1.097a17.68 17.68 0 0 1 3.279-4.565c.297-.295.6-.583.917-.864a17.853 17.853 0 0 1 4.19 5.423l2.199-1.098a20.187 20.187 0 0 0-1.883-3.038Z"/>
  </g>
</svg>